<svg width="4310" height="623" xmlns="http://www.w3.org/2000/svg" xmlns:xlink="http://www.w3.org/1999/xlink" xml:space="preserve" overflow="hidden"><g transform="translate(-46 -1742)"><path d="M457.875 1751.38 457.875 2327.97" stroke="#000000" stroke-width="4.58333" stroke-linejoin="round" stroke-miterlimit="10" fill="none" fill-rule="evenodd"/><path d="M1167.83 1751.38 1167.83 2327.97" stroke="#000000" stroke-width="4.58333" stroke-linejoin="round" stroke-miterlimit="10" fill="none" fill-rule="evenodd"/><path d="M1794.72 1751.38 1794.72 2327.97" stroke="#000000" stroke-width="4.58333" stroke-linejoin="round" stroke-miterlimit="10" fill="none" fill-rule="evenodd"/><path d="M2877.65 1751.38 2877.65 2327.97" stroke="#000000" stroke-width="4.58333" stroke-linejoin="round" stroke-miterlimit="10" fill="none" fill-rule="evenodd"/><path d="M46.4057 1896.67 4353.59 1896.67" stroke="#000000" stroke-width="4.58333" stroke-linejoin="round" stroke-miterlimit="10" fill="none" fill-rule="evenodd"/><path d="M46.4057 2039.67 4353.59 2039.67" stroke="#000000" stroke-width="4.58333" stroke-linejoin="round" stroke-miterlimit="10" fill="none" fill-rule="evenodd"/><path d="M46.4057 2182.67 4353.59 2182.67" stroke="#000000" stroke-width="4.58333" stroke-linejoin="round" stroke-miterlimit="10" fill="none" fill-rule="evenodd"/><path d="M48.6974 1751.38 48.6974 2327.97" stroke="#000000" stroke-width="4.58333" stroke-linejoin="round" stroke-miterlimit="10" fill="none" fill-rule="evenodd"/><path d="M4351.3 1751.38 4351.3 2327.97" stroke="#000000" stroke-width="4.58333" stroke-linejoin="round" stroke-miterlimit="10" fill="none" fill-rule="evenodd"/><path d="M46.4057 1753.67 4353.59 1753.67" stroke="#000000" stroke-width="4.58333" stroke-linejoin="round" stroke-miterlimit="10" fill="none" fill-rule="evenodd"/><path d="M46.4057 2325.67 4353.59 2325.67" stroke="#000000" stroke-width="4.58333" stroke-linejoin="round" stroke-miterlimit="10" fill="none" fill-rule="evenodd"/><text font-family="Yu Gothic,Yu Gothic_MSFontService,sans-serif" font-weight="400" font-size="92" transform="matrix(1 0 0 1 3434.58 1854)">Example</text><g><text fill="#ED7D31" font-family="Yu Gothic,Yu Gothic_MSFontService,sans-serif" font-weight="400" font-size="92" transform="matrix(1 0 0 1 1827.72 1854)">Word of Object Feature</text></g><g><text fill="#4472C4" font-family="Yu Gothic,Yu Gothic_MSFontService,sans-serif" font-weight="400" font-size="92" transform="matrix(1 0 0 1 1200.83 1854)">Object Class</text></g><g><text fill="#FF0000" font-family="Yu Gothic,Yu Gothic_MSFontService,sans-serif" font-weight="400" font-size="92" transform="matrix(1 0 0 1 490.875 1854)">Demonstrative</text></g><g><text font-family="Yu Gothic,Yu Gothic_MSFontService,sans-serif" font-weight="400" font-size="92" transform="matrix(1 0 0 1 2910.65 1997)">Bring me </text></g><text fill="#FF0000" font-family="Yu Gothic,Yu Gothic_MSFontService,sans-serif" font-weight="400" font-size="92" transform="matrix(1 0 0 1 3316.84 1997)">that</text><text fill="#ED7D31" font-family="Yu Gothic,Yu Gothic_MSFontService,sans-serif" font-weight="400" font-size="92" transform="matrix(1 0 0 1 3511.64 1997)">blue</text><text fill="#4472C4" font-family="Yu Gothic,Yu Gothic_MSFontService,sans-serif" font-weight="400" font-size="92" transform="matrix(1 0 0 1 3719.6 1997)">plastic bottle</text><text font-family="Yu Gothic,Yu Gothic_MSFontService,sans-serif" font-weight="400" font-size="92" transform="matrix(1 0 0 1 4268.46 1997)">.</text><g><text font-family="Yu Gothic,Yu Gothic_MSFontService,sans-serif" font-weight="400" font-size="92" transform="matrix(1 0 0 1 1827.72 1997)">✓</text></g><g><text font-family="Yu Gothic,Yu Gothic_MSFontService,sans-serif" font-weight="400" font-size="92" transform="matrix(1 0 0 1 1200.83 1997)">✓</text></g><g><text font-family="Yu Gothic,Yu Gothic_MSFontService,sans-serif" font-weight="400" font-size="92" transform="matrix(1 0 0 1 490.875 1997)">✓</text></g><g><text font-family="Yu Gothic,Yu Gothic_MSFontService,sans-serif" font-weight="400" font-size="92" transform="matrix(1 0 0 1 81.6974 1997)">Level</text></g><text font-family="Yu Gothic,Yu Gothic_MSFontService,sans-serif" font-weight="400" font-size="92" transform="matrix(1 0 0 1 307.427 1997)">-</text><text font-family="Yu Gothic,Yu Gothic_MSFontService,sans-serif" font-weight="400" font-size="92" transform="matrix(1 0 0 1 347.531 1997)">1</text><g><text font-family="Yu Gothic,Yu Gothic_MSFontService,sans-serif" font-weight="400" font-size="92" transform="matrix(1 0 0 1 2910.65 2140)">Bring me </text></g><text fill="#FF0000" font-family="Yu Gothic,Yu Gothic_MSFontService,sans-serif" font-weight="400" font-size="92" transform="matrix(1 0 0 1 3316.84 2140)">that</text><text fill="#4472C4" font-family="Yu Gothic,Yu Gothic_MSFontService,sans-serif" font-weight="400" font-size="92" transform="matrix(1 0 0 1 3511.64 2140)">plastic bottle</text><text font-family="Yu Gothic,Yu Gothic_MSFontService,sans-serif" font-weight="400" font-size="92" transform="matrix(1 0 0 1 4060.49 2140)">.</text><g><text font-family="Yu Gothic,Yu Gothic_MSFontService,sans-serif" font-weight="400" font-size="92" transform="matrix(1 0 0 1 1200.83 2140)">✓</text></g><g><text font-family="Yu Gothic,Yu Gothic_MSFontService,sans-serif" font-weight="400" font-size="92" transform="matrix(1 0 0 1 490.875 2140)">✓</text></g><g><text font-family="Yu Gothic,Yu Gothic_MSFontService,sans-serif" font-weight="400" font-size="92" transform="matrix(1 0 0 1 81.6974 2140)">Level</text></g><text font-family="Yu Gothic,Yu Gothic_MSFontService,sans-serif" font-weight="400" font-size="92" transform="matrix(1 0 0 1 307.427 2140)">-</text><text font-family="Yu Gothic,Yu Gothic_MSFontService,sans-serif" font-weight="400" font-size="92" transform="matrix(1 0 0 1 347.531 2140)">2</text><g><text font-family="Yu Gothic,Yu Gothic_MSFontService,sans-serif" font-weight="400" font-size="92" transform="matrix(1 0 0 1 2910.65 2283)">Bring me </text></g><text fill="#FF0000" font-family="Yu Gothic,Yu Gothic_MSFontService,sans-serif" font-weight="400" font-size="92" transform="matrix(1 0 0 1 3316.84 2283)">that</text><text font-family="Yu Gothic,Yu Gothic_MSFontService,sans-serif" font-weight="400" font-size="92" transform="matrix(1 0 0 1 3485.28 2283)">.</text><g><text font-family="Yu Gothic,Yu Gothic_MSFontService,sans-serif" font-weight="400" font-size="92" transform="matrix(1 0 0 1 490.875 2283)">✓</text></g><g><text font-family="Yu Gothic,Yu Gothic_MSFontService,sans-serif" font-weight="400" font-size="92" transform="matrix(1 0 0 1 81.6974 2283)">Level</text></g><text font-family="Yu Gothic,Yu Gothic_MSFontService,sans-serif" font-weight="400" font-size="92" transform="matrix(1 0 0 1 307.427 2283)">-</text><text font-family="Yu Gothic,Yu Gothic_MSFontService,sans-serif" font-weight="400" font-size="92" transform="matrix(1 0 0 1 347.531 2283)">3</text></g></svg>